<?xml version="1.0" standalone="no"?>
<!DOCTYPE svg PUBLIC "-//W3C//DTD SVG 20010904//EN"
 "http://www.w3.org/TR/2001/REC-SVG-20010904/DTD/svg10.dtd">
<svg version="1.0" xmlns="http://www.w3.org/2000/svg"
 width="485.000000pt" height="515.000000pt" viewBox="0 0 485.000000 515.000000"
 preserveAspectRatio="xMidYMid meet">

<g transform="translate(0.000000,515.000000) scale(0.100000,-0.100000)"
fill="#000000" stroke="none">
<path d="M2315 4553 c-226 -53 -563 -137 -855 -213 -63 -17 -218 -57 -345 -90
-283 -73 -318 -84 -323 -98 -4 -13 41 -26 198 -57 63 -13 189 -42 280 -64 91
-22 186 -43 211 -46 l47 -7 24 54 c14 29 36 65 50 79 91 97 328 173 635 204
150 16 174 16 317 1 309 -32 513 -96 610 -192 39 -39 86 -114 86 -137 0 -13 5
-17 14 -14 8 3 48 13 88 21 40 9 96 22 123 30 28 8 115 28 195 45 80 18 162
36 183 42 22 6 40 9 42 7 2 -2 6 -58 10 -124 7 -119 7 -122 -14 -129 -29 -9
-54 -60 -46 -94 13 -51 43 -71 107 -71 49 0 63 4 83 25 37 36 35 95 -5 128
l-30 26 0 133 c0 73 -4 138 -8 145 -8 13 -163 58 -351 103 -98 23 -608 152
-1065 269 -112 29 -204 37 -261 24z"/>
<path d="M2230 4226 c-131 -17 -194 -30 -335 -68 -160 -43 -245 -97 -278 -178
-18 -43 -26 -116 -12 -113 6 0 45 7 88 14 60 10 94 10 155 2 178 -27 374 -104
495 -197 l59 -44 65 49 c126 96 283 158 475 189 76 12 187 10 221 -5 17 -7 18
-4 12 31 -10 60 -26 106 -46 135 -58 83 -404 181 -686 193 -62 3 -153 -1 -213
-8z m-369 -172 c-16 -27 -33 -62 -37 -77 -8 -35 -18 -39 -83 -35 l-52 3 27 53
c14 29 35 57 47 64 29 15 121 47 125 43 2 -1 -10 -25 -27 -51z"/>
<path d="M1645 3782 l-30 -7 58 -46 c60 -47 141 -79 327 -128 97 -25 294 -53
345 -49 l40 3 -100 66 c-168 110 -308 157 -495 164 -63 2 -128 1 -145 -3z"/>
<path d="M2893 3776 c-155 -30 -283 -85 -398 -171 -33 -25 -61 -49 -63 -53 -3
-10 157 2 233 17 77 16 210 55 300 88 98 36 199 102 183 119 -13 12 -191 12
-255 0z"/>
<path d="M3892 3603 c-30 -59 -62 -286 -62 -443 0 -76 3 -93 20 -110 19 -19
40 -18 68 3 8 6 12 37 12 86 0 84 8 105 36 99 16 -3 20 -15 24 -92 4 -75 8
-91 25 -102 18 -12 24 -11 44 3 24 16 24 17 17 152 -8 157 -29 318 -49 376
-14 40 -14 40 -70 43 -45 2 -57 0 -65 -15z"/>
<path d="M1345 3511 c-126 -33 -229 -140 -274 -285 -20 -66 -21 -85 -21 -741
0 -743 1 -752 64 -945 19 -58 50 -140 69 -182 163 -356 528 -637 952 -734 101
-23 398 -26 490 -5 94 21 263 80 340 119 360 180 622 523 721 942 16 67 18
148 21 784 3 632 2 714 -13 764 -23 80 -49 128 -101 183 -188 201 -517 108
-604 -170 -20 -64 -20 -85 -18 -726 2 -630 1 -663 -18 -726 -58 -194 -210
-353 -394 -410 -89 -28 -252 -26 -340 4 -217 74 -365 251 -414 494 -4 18 -8
324 -10 680 -3 645 -3 648 -26 717 -29 88 -104 173 -187 212 -61 29 -176 41
-237 25z m75 -135 c0 -32 -3 -35 -49 -51 -55 -18 -116 -81 -132 -137 -5 -18
-9 -242 -9 -500 0 -411 -2 -468 -16 -482 -21 -22 -31 -20 -49 8 -14 21 -16 81
-13 502 3 476 3 479 26 529 13 28 37 65 55 84 36 38 118 80 160 80 24 1 27 -2
27 -33z m1925 15 c9 -28 -3 -48 -38 -62 -82 -32 -133 -98 -146 -188 -5 -38
-11 -47 -33 -55 -15 -5 -31 -6 -35 -2 -17 17 -3 126 22 180 29 62 43 75 116
116 63 34 105 39 114 11z m-201 -427 c14 -5 16 -43 16 -315 0 -290 -1 -309
-19 -318 -13 -7 -24 -6 -36 3 -17 12 -18 33 -16 317 1 167 5 307 7 311 6 10
26 10 48 2z m23 -760 c8 -20 -13 -63 -33 -71 -11 -4 -24 2 -36 16 -23 30 -23
46 2 71 17 17 24 18 41 10 11 -6 23 -18 26 -26z m-1935 -241 c3 -79 13 -175
22 -215 78 -377 296 -658 671 -865 74 -41 91 -55 93 -77 4 -33 -13 -34 -89 -3
-71 30 -165 86 -259 156 -337 251 -510 585 -510 988 0 146 6 167 45 161 19 -3
20 -13 27 -145z"/>
</g>
</svg>
